<?xml version="1.0" standalone="no"?>
<!DOCTYPE svg PUBLIC "-//W3C//DTD SVG 20010904//EN"
 "http://www.w3.org/TR/2001/REC-SVG-20010904/DTD/svg10.dtd">
<svg version="1.0" xmlns="http://www.w3.org/2000/svg"
 width="256.000000pt" height="256.000000pt" viewBox="0 0 256.000000 256.000000"
 preserveAspectRatio="xMidYMid meet">

<g transform="translate(0.000000,256.000000) scale(0.100000,-0.100000)"
fill="#000000" stroke="none">
<path d="M1224 2480 c-21 -34 -44 -60 -53 -60 -9 0 -37 20 -61 45 -63 65 -86
60 -120 -24 -14 -36 -31 -66 -37 -68 -7 -3 -39 14 -73 37 -78 53 -92 47 -109
-49 -7 -38 -18 -72 -25 -74 -6 -3 -38 6 -70 20 -32 13 -68 23 -80 21 -19 -3
-21 -11 -26 -83 l-5 -80 -50 4 c-27 2 -66 4 -85 5 -39 1 -39 2 -29 -119 l4
-50 -80 -5 c-74 -5 -80 -7 -83 -28 -2 -12 8 -47 22 -78 32 -69 27 -78 -56 -93
-59 -10 -88 -24 -88 -43 0 -5 18 -36 40 -67 23 -33 38 -64 35 -73 -3 -8 -35
-25 -70 -37 -35 -13 -66 -30 -69 -38 -8 -21 15 -55 59 -89 47 -35 46 -63 -2
-89 -102 -55 -106 -79 -23 -130 34 -21 60 -44 60 -53 0 -9 -24 -40 -52 -69
-63 -64 -60 -76 27 -109 33 -12 63 -28 68 -36 7 -10 -3 -32 -32 -73 -22 -32
-41 -64 -41 -71 0 -19 29 -32 91 -40 77 -9 84 -22 50 -97 -42 -94 -30 -110 71
-101 65 6 67 6 73 -19 4 -13 2 -42 -4 -63 -15 -55 -14 -94 4 -100 9 -4 43 1
77 9 33 8 67 13 74 10 10 -4 14 -25 14 -78 0 -97 12 -107 83 -75 29 12 63 23
77 24 21 1 26 -5 34 -39 24 -110 26 -115 48 -115 11 0 42 16 68 35 70 51 83
48 112 -32 32 -88 49 -92 113 -24 27 28 54 51 61 51 7 0 32 -27 54 -61 52 -76
70 -76 123 4 20 31 43 57 50 57 7 0 35 -23 62 -50 66 -67 81 -64 115 20 16 39
33 66 43 68 10 2 40 -13 68 -33 75 -54 91 -47 109 45 14 70 17 75 40 74 14 -1
48 -12 76 -24 75 -33 84 -26 84 63 0 94 6 100 85 81 77 -18 82 -18 94 4 7 13
5 38 -6 80 -21 85 -12 96 73 87 50 -5 64 -3 78 10 18 19 15 36 -15 97 -35 70
-29 80 61 93 93 15 99 33 40 112 -48 63 -44 83 22 102 54 16 88 37 88 56 0 7
-23 35 -50 61 -28 26 -50 55 -50 65 0 10 23 30 58 51 81 48 82 71 2 120 -33
20 -60 44 -60 52 0 8 23 36 50 62 69 64 65 81 -22 113 -37 14 -70 31 -73 39
-3 8 13 40 36 72 56 80 51 91 -41 110 -89 18 -92 25 -54 110 35 79 28 88 -74
92 l-77 3 4 45 c3 25 5 63 5 85 l1 40 -40 -1 c-22 -1 -60 -3 -85 -5 l-45 -4
-5 80 c-5 74 -7 80 -28 83 -12 2 -47 -8 -78 -22 -70 -32 -78 -27 -94 59 -7 35
-18 69 -26 76 -15 12 -18 11 -90 -38 -28 -19 -57 -31 -66 -28 -8 3 -26 34 -39
68 -32 83 -55 87 -115 23 -23 -25 -50 -46 -60 -46 -12 0 -33 22 -57 60 -24 40
-44 60 -56 60 -13 0 -32 -20 -57 -60z m100 -181 c34 -27 35 -71 1 -104 -13
-14 -36 -25 -50 -25 -33 0 -75 42 -75 75 0 33 41 75 73 75 13 0 36 -9 51 -21z
m-48 -239 c21 0 39 10 60 31 16 17 50 48 75 69 l46 39 59 -15 c93 -24 252
-105 334 -171 77 -61 142 -132 197 -213 l30 -45 -49 -114 c-63 -144 -63 -146
66 -206 105 -49 111 -58 104 -155 l-3 -45 -52 -3 -53 -3 0 -40 c0 -88 -46
-141 -123 -141 -59 0 -85 18 -98 67 -21 86 -44 132 -91 181 l-49 51 50 38 c85
65 132 147 130 229 -2 121 -101 231 -247 276 -60 19 -95 20 -566 20 l-501 1
55 50 c111 102 257 185 388 219 l67 18 70 -69 c56 -55 77 -69 101 -69z m-842
-431 c33 -26 35 -73 4 -106 -44 -47 -118 -15 -118 52 0 39 31 75 66 75 12 0
33 -9 48 -21z m1792 -17 c33 -42 -4 -112 -59 -112 -81 0 -107 104 -33 135 34
15 71 5 92 -23z m-1566 -272 l0 -290 -130 0 -129 0 -13 43 c-7 24 -12 99 -13
175 l0 133 85 38 c101 45 123 71 101 123 -28 71 -29 68 38 68 l61 0 0 -290z
m776 271 c69 -32 77 -103 15 -135 -24 -13 -66 -16 -206 -16 l-175 0 0 78 c0
43 3 82 7 85 3 4 76 7 162 7 131 0 163 -3 197 -19z m-73 -415 c50 -20 84 -68
97 -133 32 -159 52 -215 95 -259 l42 -44 206 0 c114 0 207 -3 207 -7 0 -5 -17
-27 -38 -51 l-37 -42 -89 19 c-130 29 -136 24 -173 -134 l-18 -80 -75 -27
c-196 -69 -449 -62 -648 17 -36 15 -39 19 -51 78 -22 112 -31 137 -56 153 -23
15 -32 15 -115 -2 l-89 -18 -35 39 c-19 22 -35 43 -36 47 0 4 170 9 378 10
l377 3 0 135 0 135 -117 3 -118 3 0 84 0 85 130 0 c88 0 141 -4 163 -14z
m-583 -616 c44 -44 10 -120 -55 -120 -36 0 -75 36 -75 70 0 10 9 29 21 44 26
33 79 36 109 6z m1097 -2 c33 -30 31 -80 -3 -107 -30 -24 -43 -26 -78 -10 -33
15 -50 57 -37 91 19 50 78 63 118 26z"/>
</g>
</svg>
